<?xml version="1.0" encoding="UTF-8"?>
<!DOCTYPE svg PUBLIC "-//W3C//DTD SVG 1.1//EN" "http://www.w3.org/Graphics/SVG/1.1/DTD/svg11.dtd">
<!-- Creator: CorelDRAW 2020 (64-Bit) -->
<svg xmlns="http://www.w3.org/2000/svg" xml:space="preserve" width="93.7311mm" height="33.9595mm" version="1.1" style="shape-rendering:geometricPrecision; text-rendering:geometricPrecision; image-rendering:optimizeQuality; fill-rule:evenodd; clip-rule:evenodd"
viewBox="0 0 9373.08 3395.94"
 xmlns:xlink="http://www.w3.org/1999/xlink"
 xmlns:xodm="http://www.corel.com/coreldraw/odm/2003">
 <defs>
  <style type="text/css">
   <![CDATA[
    .fil3 {fill:none}
    .fil0 {fill:black}
    .fil2 {fill:#FEFEFE;fill-rule:nonzero}
    .fil1 {fill:url(#id1);fill-rule:nonzero}
   ]]>
  </style>
   <clipPath id="id0">
    <path d="M3802.6 2968.81l-3543.09 10.73c-142.8,0.43 -257.89,-123.1 -259.49,-278.51 -1.6,-155.42 110.86,-286.76 253.57,-296.13l18.18 -1.2 -149.09 -205.25c-52.75,-72.62 -68.97,-160.47 -46.37,-251.17l207.52 -832.99 -153.4 -211.26c-64.04,-88.19 -74.37,-202.34 -27.6,-304.85 46.77,-102.51 137.19,-163.87 241.47,-163.87l827.04 0c60.39,0 114.35,19.83 158.64,57.75 45.18,-36.69 101.02,-57.75 161.04,-57.75l520.58 0c36.69,0 71.01,7.32 102.23,21.56 31.59,-13.98 66.1,-21.56 102.1,-21.56l517.39 0c98.56,0 183.01,55.22 227.77,147.01 47.17,-89.91 134.68,-147.01 233.5,-147.01l477.78 0c29.38,0 57.25,4.69 83.21,13.88l55.99 -229.2c33.27,-136.18 148.21,-226.96 276.59,-218.44l4990.4 331.02c142.36,9.44 249.87,140.84 242.4,296.26 -2.96,61.47 -23.49,117.95 -56.07,163.74l52.7 73.6c63.3,88.41 73.07,202.19 26.12,304.23 -45,97.83 -129.74,157.9 -228.28,162.69 2.58,33.06 -0.36,67.2 -8.95,101.8l-81.9 330.14c-0.47,1.89 -0.96,3.78 -1.46,5.65 43.31,28.53 78.27,71.4 100.57,125.61 37.47,91.07 29.74,191.01 -19.59,273.49 29.63,18.86 55.79,44.7 77.65,77.07l92.86 137.51c60.24,89.22 67.72,201.42 20.09,301.53 -1.37,2.87 -2.77,5.71 -4.21,8.52 -0.5,23.68 -3.75,47.8 -9.8,72.15l-68.28 275.03c-10.76,43.33 -27.61,78.35 -54.3,112.86l-106.38 137.51c-53.2,68.77 -124.23,104.97 -205.98,104.97l-500.93 0c-33.37,0 -64.79,-6.06 -93.69,-17.88 -29.71,12.01 -61.74,18.05 -95.59,17.87l-303.05 -1.55c-45.55,-0.23 -87.27,-11.67 -124.02,-33.73 -38.42,22.69 -82.35,35.29 -128.77,35.29l-290.46 0c-5.7,0 -11.35,-0.19 -16.96,-0.55 -5.53,0.36 -11.1,0.55 -16.71,0.55l-217.47 0c-24.15,0 -47.28,-3.17 -69.17,-9.41 -21.88,6.16 -44.79,9.41 -68.35,9.41l-218.9 0c-84.16,0 -155.87,-38.53 -206.25,-110.82 -4.3,-6.17 -8.34,-12.44 -12.12,-18.8 -48.91,79.79 -131.34,129.62 -223.62,129.62l-305.87 0c-0.94,0 -1.88,-0.01 -2.81,-0.02 -1.5,0.02 -3.01,0.02 -4.52,0.01l-218.86 -1.55c-22.79,-0.17 -44.65,-3.15 -65.4,-8.85 -22.92,6.81 -47.02,10.41 -71.83,10.41l-486.87 0c-32.45,0 -63.14,-5.78 -91.43,-16.97 -28.52,11.04 -59.18,16.97 -91.01,16.97l-218.89 0c-17.55,0 -34.56,-1.68 -50.94,-4.99 -16.53,3.34 -33.55,5.05 -50.92,4.99l-437.76 -1.56c-80.9,-0.28 -149.77,-35.94 -200.25,-103.68l-101.3 -135.96c-40.68,-54.6 -60.47,-119.66 -58.44,-185.92z"/>
   </clipPath>
  <linearGradient id="id1" gradientUnits="userSpaceOnUse" x1="4627.64" y1="2698.63" x2="4699.85" y2="280.93">
   <stop offset="0" style="stop-opacity:1; stop-color:#00A0E3"/>
   <stop offset="1" style="stop-opacity:1; stop-color:#383885"/>
  </linearGradient>
 </defs>
 <g id="Warstwa_x0020_1">
  <metadata id="CorelCorpID_0Corel-Layer"/>
  <path class="fil0" d="M3802.6 2968.81l-3543.09 10.73c-142.8,0.43 -257.89,-123.1 -259.49,-278.51 -1.6,-155.42 110.86,-286.76 253.57,-296.13l18.18 -1.2 -149.09 -205.25c-52.75,-72.62 -68.97,-160.47 -46.37,-251.17l207.52 -832.99 -153.4 -211.26c-64.04,-88.19 -74.37,-202.34 -27.6,-304.85 46.77,-102.51 137.19,-163.87 241.47,-163.87l827.04 0c60.39,0 114.35,19.83 158.64,57.75 45.18,-36.69 101.02,-57.75 161.04,-57.75l520.58 0c36.69,0 71.01,7.32 102.23,21.56 31.59,-13.98 66.1,-21.56 102.1,-21.56l517.39 0c98.56,0 183.01,55.22 227.77,147.01 47.17,-89.91 134.68,-147.01 233.5,-147.01l477.78 0c29.38,0 57.25,4.69 83.21,13.88l55.99 -229.2c33.27,-136.18 148.21,-226.96 276.59,-218.44l4990.4 331.02c142.36,9.44 249.87,140.84 242.4,296.26 -2.96,61.47 -23.49,117.95 -56.07,163.74l52.7 73.6c63.3,88.41 73.07,202.19 26.12,304.23 -45,97.83 -129.74,157.9 -228.28,162.69 2.58,33.06 -0.36,67.2 -8.95,101.8l-81.9 330.14c-0.47,1.89 -0.96,3.78 -1.46,5.65 43.31,28.53 78.27,71.4 100.57,125.61 37.47,91.07 29.74,191.01 -19.59,273.49 29.63,18.86 55.79,44.7 77.65,77.07l92.86 137.51c60.24,89.22 67.72,201.42 20.09,301.53 -1.37,2.87 -2.77,5.71 -4.21,8.52 -0.5,23.68 -3.75,47.8 -9.8,72.15l-68.28 275.03c-10.76,43.33 -27.61,78.35 -54.3,112.86l-106.38 137.51c-53.2,68.77 -124.23,104.97 -205.98,104.97l-500.93 0c-33.37,0 -64.79,-6.06 -93.69,-17.88 -29.71,12.01 -61.74,18.05 -95.59,17.87l-303.05 -1.55c-45.55,-0.23 -87.27,-11.67 -124.02,-33.73 -38.42,22.69 -82.35,35.29 -128.77,35.29l-290.46 0c-5.7,0 -11.35,-0.19 -16.96,-0.55 -5.53,0.36 -11.1,0.55 -16.71,0.55l-217.47 0c-24.15,0 -47.28,-3.17 -69.17,-9.41 -21.88,6.16 -44.79,9.41 -68.35,9.41l-218.9 0c-84.16,0 -155.87,-38.53 -206.25,-110.82 -4.3,-6.17 -8.34,-12.44 -12.12,-18.8 -48.91,79.79 -131.34,129.62 -223.62,129.62l-305.87 0c-0.94,0 -1.88,-0.01 -2.81,-0.02 -1.5,0.02 -3.01,0.02 -4.52,0.01l-218.86 -1.55c-22.79,-0.17 -44.65,-3.15 -65.4,-8.85 -22.92,6.81 -47.02,10.41 -71.83,10.41l-486.87 0c-32.45,0 -63.14,-5.78 -91.43,-16.97 -28.52,11.04 -59.18,16.97 -91.01,16.97l-218.89 0c-17.55,0 -34.56,-1.68 -50.94,-4.99 -16.53,3.34 -33.55,5.05 -50.92,4.99l-437.76 -1.56c-80.9,-0.28 -149.77,-35.94 -200.25,-103.68l-101.3 -135.96c-40.68,-54.6 -60.47,-119.66 -58.44,-185.92z"/>
  <g style="clip-path:url(#id0)">
   <g id="_1550698054464">
    <path id="1" class="fil1" d="M3527.91 2477.63l-3263.76 214.33 3724.46 -11.28 429.18 -1748.46 -514.05 0 -375.83 1545.42zm538.84 -2190.03l-131.36 506.14 514.04 0 59.05 -191.61 4548.69 16.49 -4990.41 -331.02z"/>
    <path class="fil2" d="M565.73 2340.2l-234.57 -322.93 242.26 -972.45 -234.49 -322.93 827.03 0 -320.76 1295.38 319.69 0 320.76 -1295.38 520.58 0 -412.34 1614.66 -1028.16 3.64zm2162.21 -1618.3l-517.39 0 -399.19 1614.66 510.71 3.64 188.59 -749.95 282.56 749.95 474.51 0 24.99 -100.52 -301.19 -810.9 -263.59 -706.89zm461.27 0l-117.58 473.63 285.43 775.05 309.93 -1248.68 -477.78 0zm5918.79 322.93l-231.22 -322.93 -1176.38 0 217.99 322.93 1189.61 0zm-835.98 649.51l497.62 0 81.91 -330.13 -497.61 3.56 35.87 -157.82 -510.7 0 -199.63 807.33 237.9 319.29 711.69 3.64 253.17 -322.93 -691.99 0 81.77 -322.94zm-2061.62 645.87l-234.56 -322.93 242.26 -972.45 -234.49 -322.93 827.03 0 -320.76 1295.38 319.68 0 320.76 -1295.38 520.59 0 -412.35 1614.66 -1028.16 3.64zm-741.41 0l510.7 0 -234.49 -322.93 242.26 -972.45 -234.57 -322.93 -1034.63 0 -317.49 1295.38 234.49 322.93 517.39 0 121.9 0 -89.89 -125.61 -144.6 -197.32 -128.51 0 242.18 -972.45 319.69 0 -238.93 968.8 234.5 326.58z"/>
    <path class="fil2" d="M4457.33 2834.83l-34.82 136 -354.99 0 101.3 135.97 437.76 1.55 103.1 -412.55 -354.99 0 102.64 139.03zm-371.63 64.18l217.5 0 84.95 -342.27 355.02 0 -99.88 -137.52 -566.86 0 94.25 137.52 -84.98 342.27zm1280.75 -132.93l51.64 -209.34 -101.31 -135.96 -575.31 0 102.7 135.96 242.76 0 112.26 0 -24.33 99.33 -157.29 82.5 27.34 -111.52 -217.47 0 -119.86 481.3 218.89 0 51.67 -210.86 130.77 210.86 256.78 0 -159.29 -261.28 160.05 -80.99zm621.06 -346.86l-366.22 0 -107.81 137.52 -91.12 371.29 287.2 -276.55 22.82 -94.74 138.91 0 -6.26 35.15 -531.62 516.46 262.38 0 19.68 -77.93 187.37 -189.49 -1.48 4.59 -66.63 261.28 218.87 1.55 136.58 -551.61 -102.67 -137.52zm666.47 1.56l-554.26 0 83.04 135.96 245.58 0 109.44 0 -24.32 99.33 -157.3 82.5 27.34 -111.52 -217.47 0 -85.01 343.78 -121.82 137.52 305.87 0 31.89 -129.9 409.65 -220.02 50.07 -201.69 -102.7 -135.96zm591.19 275.02l-217.5 0 69.73 -276.58 -352.21 0 99.86 137.52 -137.98 551.61 218.89 0c0,0 66.86,-273.52 68.28,-275.03l136.1 0 -66.86 275.03 217.47 0 101.71 -411.03 -137.52 0 0.03 -1.52zm-11.67 -276.58l-51.55 206.28 218.89 0 51.55 -206.28 -218.89 0zm187.54 551.61l-106.41 137.52 290.45 0 119.83 -481.3 -218.89 0 -84.98 343.78zm136.59 -551.61l-33.46 137.52 218.89 0 33.46 -137.52 -218.89 0zm301.91 137.52l506.57 0 -98.46 -137.52 -500.94 0 92.83 137.52zm200.71 71.82l-217.47 0 -84.98 342.27 101.31 135.97 303.05 1.55 107.81 -137.52 -294.66 0 84.94 -342.27zm627.28 -1.51l-217.5 0 -51.55 206.27 354.99 0 -33.43 137.51 -355.02 0 -34.82 137.52 500.93 0 106.38 -137.52 68.28 -275.03 -354.99 0 16.73 -68.75zm53.22 -70.31l319.93 0 -92.86 -137.52 -582.31 0 101.28 137.52 253.96 0z"/>
   </g>
  </g>
  <path class="fil3" d="M3802.6 2968.81l-3543.09 10.73c-142.8,0.43 -257.89,-123.1 -259.49,-278.51 -1.6,-155.42 110.86,-286.76 253.57,-296.13l18.18 -1.2 -149.09 -205.25c-52.75,-72.62 -68.97,-160.47 -46.37,-251.17l207.52 -832.99 -153.4 -211.26c-64.04,-88.19 -74.37,-202.34 -27.6,-304.85 46.77,-102.51 137.19,-163.87 241.47,-163.87l827.04 0c60.39,0 114.35,19.83 158.64,57.75 45.18,-36.69 101.02,-57.75 161.04,-57.75l520.58 0c36.69,0 71.01,7.32 102.23,21.56 31.59,-13.98 66.1,-21.56 102.1,-21.56l517.39 0c98.56,0 183.01,55.22 227.77,147.01 47.17,-89.91 134.68,-147.01 233.5,-147.01l477.78 0c29.38,0 57.25,4.69 83.21,13.88l55.99 -229.2c33.27,-136.18 148.21,-226.96 276.59,-218.44l4990.4 331.02c142.36,9.44 249.87,140.84 242.4,296.26 -2.96,61.47 -23.49,117.95 -56.07,163.74l52.7 73.6c63.3,88.41 73.07,202.19 26.12,304.23 -45,97.83 -129.74,157.9 -228.28,162.69 2.58,33.06 -0.36,67.2 -8.95,101.8l-81.9 330.14c-0.47,1.89 -0.96,3.78 -1.46,5.65 43.31,28.53 78.27,71.4 100.57,125.61 37.47,91.07 29.74,191.01 -19.59,273.49 29.63,18.86 55.79,44.7 77.65,77.07l92.86 137.51c60.24,89.22 67.72,201.42 20.09,301.53 -1.37,2.87 -2.77,5.71 -4.21,8.52 -0.5,23.68 -3.75,47.8 -9.8,72.15l-68.28 275.03c-10.76,43.33 -27.61,78.35 -54.3,112.86l-106.38 137.51c-53.2,68.77 -124.23,104.97 -205.98,104.97l-500.93 0c-33.37,0 -64.79,-6.06 -93.69,-17.88 -29.71,12.01 -61.74,18.05 -95.59,17.87l-303.05 -1.55c-45.55,-0.23 -87.27,-11.67 -124.02,-33.73 -38.42,22.69 -82.35,35.29 -128.77,35.29l-290.46 0c-5.7,0 -11.35,-0.19 -16.96,-0.55 -5.53,0.36 -11.1,0.55 -16.71,0.55l-217.47 0c-24.15,0 -47.28,-3.17 -69.17,-9.41 -21.88,6.16 -44.79,9.41 -68.35,9.41l-218.9 0c-84.16,0 -155.87,-38.53 -206.25,-110.82 -4.3,-6.17 -8.34,-12.44 -12.12,-18.8 -48.91,79.79 -131.34,129.62 -223.62,129.62l-305.87 0c-0.94,0 -1.88,-0.01 -2.81,-0.02 -1.5,0.02 -3.01,0.02 -4.52,0.01l-218.86 -1.55c-22.79,-0.17 -44.65,-3.15 -65.4,-8.85 -22.92,6.81 -47.02,10.41 -71.83,10.41l-486.87 0c-32.45,0 -63.14,-5.78 -91.43,-16.97 -28.52,11.04 -59.18,16.97 -91.01,16.97l-218.89 0c-17.55,0 -34.56,-1.68 -50.94,-4.99 -16.53,3.34 -33.55,5.05 -50.92,4.99l-437.76 -1.56c-80.9,-0.28 -149.77,-35.94 -200.25,-103.68l-101.3 -135.96c-40.68,-54.6 -60.47,-119.66 -58.44,-185.92z"/>
 </g>
</svg>
